<?xml version="1.0" encoding="UTF-8" standalone="no"?>
<!DOCTYPE svg PUBLIC "-//W3C//DTD SVG 1.1//EN" "http://www.w3.org/Graphics/SVG/1.1/DTD/svg11.dtd">
<svg width="100%" height="100%" viewBox="0 0 4326 4326" version="1.1" xmlns="http://www.w3.org/2000/svg" xmlns:xlink="http://www.w3.org/1999/xlink" xml:space="preserve" xmlns:serif="http://www.serif.com/" style="fill-rule:evenodd;clip-rule:evenodd;stroke-linejoin:round;stroke-miterlimit:2;">
    <g transform="matrix(1,0,0,1,-1380.83,-474.71)">
        <g transform="matrix(1,0,0,1,1661.02,639.431)">
            <g id="Layer-1" serif:id="Layer 1" transform="matrix(4.16667,0,0,4.16667,0.977125,0.56886)">
                <g transform="matrix(0.24,1.33227e-17,-1.33227e-17,0.24,1.52795e-12,1.36424e-12)">
                    <circle cx="1881.78" cy="1997.66" r="2162.95" style="fill:rgb(41,43,118);"/>
                </g>
                <g transform="matrix(1,0,0,1,547.392,415.583)">
                    <path d="M0,-9.448C0,-9.448 10.667,-11.073 16.966,-15.137C16.966,-15.137 22.757,-9.448 32.51,-6.705C32.51,-6.705 28.954,5.689 0,-9.448" style="fill:white;fill-rule:nonzero;"/>
                </g>
                <g transform="matrix(1,0,0,1,617.491,397.703)">
                    <path d="M0,3.454C0,3.454 -0.102,9.143 -12.598,9.651C-25.094,10.159 -41.653,4.876 -47.444,-0.711L-44.803,-4.064C-44.803,-4.064 -39.317,-4.673 -34.847,-6.705C-34.847,-6.705 -22.655,0.914 0,3.454" style="fill:white;fill-rule:nonzero;"/>
                </g>
                <g transform="matrix(1,0,0,1,587.013,390.998)">
                    <path d="M0,-3.556L1.829,-6.807C1.829,-6.807 7.416,-8.026 10.769,-12.09C10.769,-12.09 39.621,-1.423 65.934,-6.401C65.934,-6.401 66.442,-5.283 66.036,-3.556C65.629,-1.829 55.368,8.534 28.548,4.775C4.116,1.35 0,-3.556 0,-3.556" style="fill:white;fill-rule:nonzero;"/>
                </g>
                <g transform="matrix(0.121027,0.992649,0.992649,-0.121027,638.808,336.553)">
                    <path d="M34.223,-39.055C34.223,-39.055 30.203,-30.889 22.642,-30.785C22.642,-30.785 41.982,-0.598 34.223,39.853C34.223,39.853 35.522,39.593 36.896,39.118C38.272,38.644 54.85,23.522 34.223,-39.055" style="fill:white;fill-rule:nonzero;"/>
                </g>
                <g transform="matrix(1,0,0,1,615.358,357.319)">
                    <path d="M0,1.27C0,1.27 4.165,-3.099 2.845,-10.667L4.369,-12.344C4.369,-12.344 48.257,-2.895 88.031,-16.153C88.031,-16.153 91.231,-13.41 88.64,-8.839C86.05,-4.267 48.257,17.423 0,1.27" style="fill:white;fill-rule:nonzero;"/>
                </g>
                <g transform="matrix(1,0,0,1,621.657,322.016)">
                    <path d="M0,17.677C0,17.677 2.641,11.581 -2.032,5.689C-2.032,5.689 -0.61,3.251 -0.813,2.438C-0.813,2.438 56.892,15.848 91.231,-9.956C91.231,-9.956 99.765,-10.972 98.952,-2.235C98.139,6.502 78.836,28.649 0,17.677" style="fill:white;fill-rule:nonzero;"/>
                </g>
                <g transform="matrix(0.399745,0.916627,0.916627,-0.399745,638.874,259.855)">
                    <path d="M47.22,-39.598C47.22,-39.598 44.03,-37.764 40.506,-38.221C40.506,-38.221 73.88,15.941 47.22,69.684C47.22,69.684 57.871,74.792 68.176,58.773C78.479,42.752 73.627,-7.002 47.22,-39.598" style="fill:white;fill-rule:nonzero;"/>
                </g>
                <g transform="matrix(0.367966,0.929839,0.929839,-0.367966,632.443,234.682)">
                    <path d="M52.426,-36.39C52.426,-36.39 77.182,33.901 42.409,70.824C37.798,78.221 45.093,79.814 52.426,76.257C68.367,71.26 93.36,26.187 61.906,-38.94C61.906,-38.94 57.444,-36.408 52.426,-36.39" style="fill:white;fill-rule:nonzero;"/>
                </g>
                <g transform="matrix(0.48461,0.87473,0.87473,-0.48461,608.414,222.22)">
                    <path d="M60.139,-25.263C60.139,-25.263 89.919,49.874 42.057,82.662C33.239,91.903 48.077,99.188 60.139,87.627C71.453,76.783 98.478,42.578 63.352,-26.695L60.139,-25.263Z" style="fill:white;fill-rule:nonzero;"/>
                </g>
                <g transform="matrix(1,0,0,1,613.529,185.402)">
                    <path d="M0,89.068C0,89.068 65.325,67.225 72.639,28.823C76.805,5.761 60.753,-1.452 44.295,9.825C44.295,9.825 42.161,-1.045 53.971,-4.017C67.481,-7.416 81.021,4.745 82.087,26.385C83.187,48.682 69.287,83.836 -0.203,96.484C1.016,91.608 0,89.068 0,89.068" style="fill:white;fill-rule:nonzero;"/>
                </g>
                <g transform="matrix(1,0,0,1,555.57,276.248)">
                    <path d="M0,122.369C2.895,120.185 3.58,117.235 4.06,115.201C5.567,108.823 5.342,102.21 5.215,95.708C5.179,93.912 5.158,92.072 5.746,90.374C6.5,88.197 8.127,87.092 10.239,86.437C14.074,85.249 19.387,85.283 22.053,81.81C25.796,76.934 24.929,69.623 20.904,65.2C16.557,60.423 10.049,58.363 4.345,55.736C4.336,55.732 4.327,55.728 4.318,55.724C-6.248,50.847 -16.286,39.614 -7.67,24.433C0.864,9.397 25.449,10.616 36.828,6.349C48.206,2.083 52.27,0 52.27,0C52.27,0 55.318,15.239 28.345,16.153C23.468,16.458 23.925,22.706 30.021,22.096C36.116,21.487 49.832,19.963 53.946,10.972C53.946,10.972 61.413,27.735 32.154,28.192C26.516,28.497 26.973,34.288 30.783,34.44C34.593,34.592 52.727,32.916 57.299,23.925C57.227,24.065 57.484,24.757 57.51,24.916C57.644,25.763 57.684,26.626 57.634,27.481C57.479,30.165 56.372,32.69 54.485,34.61C52.111,37.027 48.886,38.371 45.639,39.149C43.99,39.544 42.271,39.859 40.582,40.025C38.54,40.224 36.488,40.04 34.442,40.028C33.5,40.023 32.497,40.029 31.646,40.489C30.999,40.839 30.495,41.447 30.271,42.148C30.104,42.674 30.104,43.29 30.43,43.735C30.629,44.006 30.924,44.185 31.218,44.347C36.234,47.1 42.796,46.622 48.122,45.131C50.113,44.573 52.042,43.793 53.855,42.799C54.811,42.275 55.735,41.691 56.619,41.053C56.918,40.837 59.376,39.148 59.28,38.859C59.28,38.859 64.004,53.032 49.222,55.013C44.49,55.252 39.938,54.795 35.743,52.509C34.404,51.779 32.662,51.581 31.312,52.412C30.458,52.937 29.876,53.979 30.108,54.954C30.239,55.505 30.604,55.973 31.015,56.364C32.468,57.746 34.442,58.261 36.272,58.937C38.411,59.727 40.692,60.186 42.955,60.425C48.608,61.021 54.647,60.048 59.265,56.55C59.53,56.35 59.789,56.142 60.042,55.927C59.935,56.018 60.458,58.526 60.472,58.771C60.581,60.753 60.318,62.804 59.418,64.593C58.199,67.016 55.909,68.527 53.336,69.224C48.597,70.508 43.353,69.608 38.68,68.493C36.927,68.075 35.216,67.715 33.399,67.841C32.805,67.882 32.173,67.983 31.737,68.389C31.435,68.671 31.264,69.073 31.191,69.48C30.69,72.303 34.404,73.449 36.472,74.125C39.39,75.079 42.467,75.583 45.53,75.714C49.403,75.88 53.349,75.422 56.994,74.061C56.898,74.097 56.674,75.137 56.629,75.254C56.256,76.233 55.739,77.159 55.111,77.997C52.967,80.856 49.626,82.369 46.132,82.767C44.162,82.991 42.165,82.898 40.206,82.623C37.581,82.255 34.883,81.226 32.211,81.632C31.405,81.754 30.554,82.069 30.137,82.77C29.635,83.615 29.958,84.755 30.625,85.476C32.19,87.167 35.158,87.769 37.357,88.05C40.401,88.441 43.508,88.243 46.531,87.782C46.883,87.729 49.783,87.411 49.832,87.167C49.831,87.167 47.783,97.539 36.642,95.746C34.835,95.455 33.112,94.751 31.557,93.784C30.379,93.051 29.185,92.327 27.936,91.718C26.309,90.925 23.824,90.152 22.771,92.247C21.337,95.102 25.732,97.738 27.72,98.807C28.901,99.442 30.156,99.942 31.454,100.277C32.128,100.45 32.813,100.58 33.504,100.656C33.934,100.704 34.643,100.882 35.507,100.73C35.507,100.73 31.443,104.641 24.992,102.66C18.541,100.679 18.592,98.393 15.696,98.749C12.801,99.104 11.582,106.52 25.957,108.654C25.957,108.654 21.69,112.21 16.763,111.448C11.328,110.533 9.956,106.419 7.823,109.01C5.517,111.809 9.956,115.308 11.531,115.461C11.531,115.461 4.623,121.658 0,122.369" style="fill:white;fill-rule:nonzero;"/>
                </g>
                <g transform="matrix(1,0,0,1,352.608,415.583)">
                    <path d="M0,-9.448C0,-9.448 -10.667,-11.073 -16.966,-15.137C-16.966,-15.137 -22.757,-9.448 -32.51,-6.705C-32.51,-6.705 -28.954,5.689 0,-9.448" style="fill:white;fill-rule:nonzero;"/>
                </g>
                <g transform="matrix(1,0,0,1,282.509,397.703)">
                    <path d="M0,3.454C0,3.454 0.102,9.143 12.598,9.651C25.094,10.159 41.653,4.876 47.444,-0.711L44.803,-4.064C44.803,-4.064 39.317,-4.673 34.847,-6.705C34.847,-6.705 22.655,0.914 0,3.454" style="fill:white;fill-rule:nonzero;"/>
                </g>
                <g transform="matrix(1,0,0,1,312.987,390.998)">
                    <path d="M0,-3.556L-1.829,-6.807C-1.829,-6.807 -7.416,-8.026 -10.769,-12.09C-10.769,-12.09 -39.621,-1.423 -65.934,-6.401C-65.934,-6.401 -66.442,-5.283 -66.036,-3.556C-65.629,-1.829 -55.368,8.534 -28.548,4.775C-4.116,1.35 0,-3.556 0,-3.556" style="fill:white;fill-rule:nonzero;"/>
                </g>
                <g transform="matrix(0.121027,-0.992649,-0.992649,-0.121027,261.192,336.553)">
                    <path d="M-34.223,-39.055C-34.223,-39.055 -30.203,-30.888 -22.642,-30.785C-22.642,-30.785 -41.982,-0.598 -34.223,39.853C-34.223,39.853 -35.522,39.593 -36.896,39.118C-38.272,38.644 -54.85,23.522 -34.223,-39.055" style="fill:white;fill-rule:nonzero;"/>
                </g>
                <g transform="matrix(1,0,0,1,284.642,357.319)">
                    <path d="M0,1.27C0,1.27 -4.165,-3.099 -2.845,-10.667L-4.369,-12.344C-4.369,-12.344 -48.257,-2.895 -88.031,-16.153C-88.031,-16.153 -91.231,-13.41 -88.64,-8.839C-86.05,-4.267 -48.257,17.423 0,1.27" style="fill:white;fill-rule:nonzero;"/>
                </g>
                <g transform="matrix(1,0,0,1,278.343,322.016)">
                    <path d="M0,17.677C0,17.677 -2.641,11.581 2.032,5.689C2.032,5.689 0.61,3.251 0.813,2.438C0.813,2.438 -56.892,15.848 -91.231,-9.956C-91.231,-9.956 -99.765,-10.972 -98.952,-2.235C-98.139,6.502 -78.836,28.649 0,17.677" style="fill:white;fill-rule:nonzero;"/>
                </g>
                <g transform="matrix(0.399745,-0.916627,-0.916627,-0.399745,261.126,259.855)">
                    <path d="M-47.22,-39.598C-47.22,-39.598 -44.03,-37.764 -40.506,-38.221C-40.506,-38.221 -73.88,15.941 -47.22,69.684C-47.22,69.684 -57.871,74.792 -68.176,58.773C-78.479,42.752 -73.627,-7.002 -47.22,-39.598" style="fill:white;fill-rule:nonzero;"/>
                </g>
                <g transform="matrix(0.367966,-0.929839,-0.929839,-0.367966,267.557,234.682)">
                    <path d="M-52.426,-36.39C-52.426,-36.39 -77.182,33.901 -42.409,70.824C-37.798,78.221 -45.093,79.814 -52.426,76.257C-68.367,71.26 -93.36,26.187 -61.906,-38.939C-61.906,-38.939 -57.444,-36.408 -52.426,-36.39" style="fill:white;fill-rule:nonzero;"/>
                </g>
                <g transform="matrix(0.48461,-0.87473,-0.87473,-0.48461,291.586,222.22)">
                    <path d="M-60.139,-25.263C-60.139,-25.263 -89.919,49.874 -42.057,82.662C-33.239,91.903 -48.077,99.188 -60.139,87.627C-71.453,76.783 -98.478,42.578 -63.352,-26.695L-60.139,-25.263Z" style="fill:white;fill-rule:nonzero;"/>
                </g>
                <g transform="matrix(1,0,0,1,286.471,185.402)">
                    <path d="M0,89.068C0,89.068 -65.325,67.225 -72.639,28.823C-76.805,5.761 -60.753,-1.452 -44.295,9.825C-44.295,9.825 -42.161,-1.045 -53.971,-4.017C-67.481,-7.416 -81.021,4.745 -82.087,26.385C-83.187,48.682 -69.287,83.836 0.203,96.484C-1.016,91.608 0,89.068 0,89.068" style="fill:white;fill-rule:nonzero;"/>
                </g>
                <g transform="matrix(1,0,0,1,344.43,276.248)">
                    <path d="M0,122.369C-2.895,120.185 -3.58,117.235 -4.06,115.201C-5.567,108.823 -5.342,102.21 -5.215,95.708C-5.179,93.912 -5.158,92.072 -5.746,90.374C-6.5,88.197 -8.127,87.092 -10.239,86.437C-14.074,85.249 -19.387,85.283 -22.053,81.81C-25.796,76.934 -24.929,69.623 -20.904,65.2C-16.557,60.423 -10.049,58.363 -4.345,55.736L-4.318,55.724C6.248,50.847 16.286,39.614 7.67,24.433C-0.864,9.397 -25.449,10.616 -36.828,6.349C-48.206,2.083 -52.27,0 -52.27,0C-52.27,0 -55.318,15.239 -28.345,16.153C-23.468,16.458 -23.925,22.706 -30.021,22.096C-36.116,21.487 -49.832,19.963 -53.946,10.972C-53.946,10.972 -61.413,27.735 -32.154,28.192C-26.516,28.497 -26.973,34.288 -30.783,34.44C-34.593,34.592 -52.727,32.916 -57.299,23.925C-57.227,24.065 -57.484,24.757 -57.51,24.916C-57.644,25.763 -57.684,26.626 -57.634,27.481C-57.479,30.165 -56.372,32.69 -54.485,34.61C-52.111,37.027 -48.886,38.371 -45.639,39.149C-43.99,39.544 -42.271,39.859 -40.582,40.025C-38.54,40.224 -36.488,40.04 -34.442,40.028C-33.5,40.023 -32.497,40.029 -31.646,40.489C-30.999,40.839 -30.495,41.447 -30.272,42.148C-30.104,42.674 -30.104,43.29 -30.43,43.735C-30.629,44.006 -30.924,44.185 -31.218,44.347C-36.234,47.1 -42.796,46.622 -48.122,45.131C-50.113,44.573 -52.042,43.793 -53.855,42.799C-54.811,42.275 -55.735,41.691 -56.619,41.053C-56.918,40.837 -59.376,39.148 -59.28,38.859C-59.28,38.859 -64.004,53.032 -49.222,55.013C-44.49,55.252 -39.938,54.795 -35.743,52.509C-34.404,51.779 -32.662,51.581 -31.312,52.412C-30.458,52.937 -29.876,53.979 -30.108,54.954C-30.239,55.505 -30.604,55.973 -31.015,56.364C-32.468,57.746 -34.442,58.261 -36.272,58.937C-38.411,59.727 -40.692,60.186 -42.955,60.425C-48.608,61.021 -54.647,60.048 -59.265,56.55C-59.53,56.35 -59.789,56.142 -60.042,55.927C-59.935,56.018 -60.458,58.526 -60.472,58.771C-60.581,60.753 -60.318,62.804 -59.418,64.593C-58.199,67.016 -55.909,68.527 -53.336,69.224C-48.597,70.508 -43.353,69.608 -38.68,68.493C-36.927,68.075 -35.216,67.715 -33.399,67.841C-32.805,67.882 -32.173,67.983 -31.737,68.389C-31.435,68.671 -31.264,69.073 -31.191,69.48C-30.69,72.303 -34.404,73.449 -36.472,74.125C-39.39,75.079 -42.467,75.583 -45.53,75.714C-49.403,75.88 -53.349,75.422 -56.994,74.061C-56.898,74.097 -56.674,75.137 -56.629,75.254C-56.256,76.233 -55.739,77.159 -55.111,77.997C-52.967,80.856 -49.626,82.369 -46.132,82.767C-44.162,82.991 -42.165,82.898 -40.206,82.623C-37.581,82.255 -34.883,81.226 -32.211,81.632C-31.405,81.754 -30.554,82.069 -30.137,82.77C-29.635,83.615 -29.958,84.755 -30.625,85.476C-32.19,87.167 -35.158,87.769 -37.357,88.05C-40.401,88.441 -43.508,88.243 -46.531,87.782C-46.883,87.729 -49.783,87.411 -49.832,87.167C-49.832,87.167 -47.783,97.539 -36.642,95.746C-34.835,95.455 -33.112,94.751 -31.557,93.784C-30.379,93.051 -29.185,92.327 -27.936,91.718C-26.309,90.925 -23.824,90.152 -22.771,92.247C-21.337,95.102 -25.732,97.738 -27.72,98.807C-28.901,99.442 -30.156,99.942 -31.454,100.277C-32.128,100.45 -32.813,100.58 -33.504,100.656C-33.934,100.704 -34.643,100.882 -35.507,100.73C-35.507,100.73 -31.443,104.641 -24.992,102.66C-18.541,100.679 -18.592,98.393 -15.696,98.749C-12.801,99.104 -11.582,106.52 -25.957,108.654C-25.957,108.654 -21.69,112.21 -16.763,111.448C-11.328,110.533 -9.956,106.419 -7.823,109.01C-5.517,111.809 -9.956,115.308 -11.531,115.461C-11.531,115.461 -4.623,121.658 0,122.369" style="fill:white;fill-rule:nonzero;"/>
                </g>
                <g transform="matrix(1,0,0,1,379.865,198.486)">
                    <path d="M0,131.555C0,131.555 8.077,125.002 17.372,123.326C17.372,123.326 10.363,68.77 78.328,44.693C146.294,20.615 212.94,68.059 269.832,38.8C269.832,38.8 240.37,56.681 134.696,22.44C132.418,21.702 130.067,21.176 127.717,20.717C21.633,0 -15.455,82.681 0,131.555" style="fill:white;fill-rule:nonzero;"/>
                </g>
                <g transform="matrix(1,0,0,1,378.713,324.304)">
                    <path d="M0,-54.967C-6.119,-66.319 -16.221,-71.372 -16.221,-71.372C-12.258,-62.533 -15.001,-59.181 -17.744,-28.398C-20.487,2.385 -11.649,16.405 -11.649,16.405C-9.013,13.886 -6.276,11.64 -3.574,9.651L-4.272,7.453C-10.401,-11.927 -8.6,-34.769 0,-54.967" style="fill:white;fill-rule:nonzero;"/>
                </g>
                <g transform="matrix(1,0,0,1,418.045,230.578)">
                    <path d="M0,-5.898C1.729,-31.069 -11.563,-38.805 -11.563,-38.805C-9.937,-15.642 -24.059,0.817 -32.796,11.077C-41.533,21.338 -39.196,28.755 -39.196,28.755C-38.5,29.755 -37.595,31.222 -36.602,32.907C-34.265,28.287 -31.566,23.841 -28.503,19.66C-20.811,9.161 -11.183,0.584 0,-5.898" style="fill:white;fill-rule:nonzero;"/>
                </g>
                <g transform="matrix(-0.602644,-0.79801,-0.79801,0.602644,418.319,196.174)">
                    <path d="M-23.624,-46.003C-6.183,-19.2 -12.445,3.863 -12.445,3.863C-16.661,5.821 -20.411,8.286 -23.624,10.813C-25.13,2.965 -27.61,-4.849 -31.044,-12.535C-16.979,-27.426 -23.624,-46.003 -23.624,-46.003" style="fill:white;fill-rule:nonzero;"/>
                </g>
                <g transform="matrix(1,0,0,1,476.785,198.79)">
                    <path d="M0,12.061L0,10.17C-9.347,1.355 -15.645,-2.003 -15.645,-2.003C-22.452,3.244 -24.586,9.331 -24.586,9.331L-23.931,14.064C-16.657,12.728 -9.048,12.043 -1.155,12.043C-0.773,12.043 -0.384,12.058 0,12.061" style="fill:white;fill-rule:nonzero;"/>
                </g>
                <g transform="matrix(1,0,0,1,492.735,212.216)">
                    <path d="M0,-19.732C-6.178,-14.537 -9.058,-7.035 -10.403,-1.211C-5.959,-1.007 -1.417,-0.603 3.209,0C0.383,-9.355 0,-19.732 0,-19.732" style="fill:white;fill-rule:nonzero;"/>
                </g>
                <g transform="matrix(1,0,0,1,403.434,231.293)">
                    <path d="M0,88.691C0,88.691 6.756,87.929 10.871,88.081C10.871,88.081 21.131,57.603 53.032,46.428C71.725,41.552 85.948,42.364 111.956,57.603C124.553,62.48 153.406,61.464 167.832,45.006C167.832,45.006 154.304,44.869 117.848,35.862C83.307,27.329 47.799,26.904 16.585,65.833C15.37,67.348 12.842,68.036 11.288,66.871C9.67,65.657 10.073,63 11.328,61.413C18.643,52.165 42.488,25.771 84.322,26.11C84.322,26.11 99.358,25.297 150.358,37.082C174.131,41.958 197.701,35.05 214.362,21.03C214.362,21.03 175.452,21.944 146.193,15.239C116.934,8.534 61.769,0 15.442,44.193C9.347,50.289 -1.118,70.709 0,88.691" style="fill:white;fill-rule:nonzero;"/>
                </g>
                <g transform="matrix(1,0,0,1,438.535,187.1)">
                    <path d="M0,5.181C0,5.181 2.591,2.895 5.181,2.209C5.181,2.209 0.762,0.152 -10.667,0C-10.667,0 -2.946,2.082 0,5.181" style="fill:white;fill-rule:nonzero;"/>
                </g>
                <g transform="matrix(1,0,0,1,384.436,234.95)">
                    <path d="M0,0.914C0,0.914 9.347,-11.48 12.394,-16.763C12.394,-16.763 -5.181,-13.411 -46.936,-0.915C-81.986,9.753 -113.835,8.381 -133.341,2.438C-133.341,2.438 -106.673,17.677 -60.346,9.753C-22.351,3.251 -10.363,1.219 0,0.914" style="fill:white;fill-rule:nonzero;"/>
                </g>
                <g transform="matrix(1,0,0,1,379.712,281.988)">
                    <path d="M0,-39.418C0,-39.418 -4.267,-35.151 -5.486,-24.636C-5.486,-24.636 -10.058,-31.951 -22.401,-34.999C-22.401,-34.999 -18.744,-26.465 -19.963,-16.712C-19.963,-16.712 -61.413,0 -97.987,-29.259C-97.987,-29.259 -74.823,-27.532 -43.736,-32.916C-22.659,-36.567 -6.096,-39.113 0,-39.418" style="fill:white;fill-rule:nonzero;"/>
                </g>
                <g transform="matrix(1,0,0,1,328.509,286.001)">
                    <path d="M0,-9.753C0,-9.753 23.925,-12.191 30.783,-14.782C30.783,-14.782 28.802,2.591 28.802,5.029C28.802,5.029 11.124,1.219 0,-9.753" style="fill:white;fill-rule:nonzero;"/>
                </g>
                <g transform="matrix(1,0,0,1,438.535,306.256)">
                    <path d="M0,18.68L-0.305,20.89C-0.305,20.89 18.287,-0.597 36.421,13.727C36.421,13.727 48.612,12.813 52.727,13.575C52.727,13.575 48.488,-2.21 26.128,1.002C25.166,1.14 24.212,1.342 23.279,1.613C12.135,4.859 3.365,12.682 0,18.68" style="fill:white;fill-rule:nonzero;"/>
                </g>
                <g transform="matrix(-0.387569,0.921841,0.921841,0.387569,537.417,309.083)">
                    <path d="M38.032,-51.326C38.032,-51.326 21.486,-28.747 33.281,2.441C38.012,18.317 38.032,26.921 38.032,26.921C38.032,26.921 43.4,19.92 44.996,14.419C44.996,14.419 28.201,-4.875 38.032,-51.326" style="fill:white;fill-rule:nonzero;"/>
                </g>
                <g transform="matrix(1,0,0,1,498.091,280.817)">
                    <path d="M0,40.236C2.807,40.846 5.733,41.682 8.733,42.809C9.882,39.395 10.958,33.877 10.188,25.96C8.766,11.33 -7.083,-2.893 -34.107,1.171C-34.107,1.171 -61.029,3.203 -76.928,38.862L-67.328,39.776L-67.175,43.129L-65.652,42.824C-65.652,42.824 -57.695,23.368 -31.55,20.575C-10.281,18.303 -2.556,32.738 0,40.236" style="fill:white;fill-rule:nonzero;"/>
                </g>
                <g transform="matrix(0.920348,0.3911,0.3911,-0.920348,503.534,323.462)">
                    <path d="M6.989,1.176C10.49,1.107 14.176,0.748 18.031,0.003C16.594,8.227 13.421,21.918 6.989,33.351C6.989,33.351 -2.901,31.688 -20.797,33.797C-20.797,33.797 4.063,30.684 6.989,1.176" style="fill:white;fill-rule:nonzero;"/>
                </g>
                <g transform="matrix(1,0,0,1,524.863,302.33)">
                    <path d="M0,31.674C1.479,32.865 2.953,34.148 4.417,35.532C5.488,36.411 6.511,37.22 7.51,37.997C16.185,20.349 13.792,-6.323 13.792,-6.323L4.039,-6.221C5.779,13.297 2.577,25.413 0,31.674" style="fill:white;fill-rule:nonzero;"/>
                </g>
                <g transform="matrix(1,0,0,1,570.962,386.883)">
                    <path d="M0,43.126C0,43.126 -26.821,12.953 -66.747,36.421C-96.31,49.526 -120.083,45.259 -137.151,28.497C-154.219,11.734 -164.429,-8.991 -153.304,-38.707C-153.304,-38.707 -176.772,-12.954 -161.229,28.801C-145.685,70.556 -84.424,81.833 -44.498,76.347C-4.572,70.861 24.382,64.461 46.936,66.899C46.936,66.899 21.335,45.564 -6.4,49.526C-33.869,53.451 -81.668,72.024 -118.509,55.601C-119.222,55.283 -119.928,54.927 -120.614,54.555C-145.797,40.925 -153.055,30.836 -157.058,25.54C-158.163,24.078 -157.833,22.026 -156.331,20.977C-154.897,19.976 -152.527,20.774 -151.476,22.172C-145.813,29.704 -128.211,49.425 -100.273,54.504C-63.185,61.248 -11.074,40.586 0,43.126" style="fill:white;fill-rule:nonzero;"/>
                </g>
                <g transform="matrix(0.00758641,0.999971,0.999971,-0.00758641,486.05,381.13)">
                    <path d="M30.037,42.846C29.878,44.601 29.797,46.35 29.811,48.094C29.822,49.636 29.902,51.138 30.037,52.601C-29.52,58.661 -43.289,14.904 -43.289,14.904C-22.768,41.888 13.132,43.677 30.037,42.846" style="fill:white;fill-rule:nonzero;"/>
                </g>
                <g transform="matrix(1,0,0,1,498.119,382.369)">
                    <path d="M0,-14.535C0,-14.535 15.239,-5.696 14.325,9.847C14.325,27.604 4.958,36.122 -1.088,39.774C0.713,39.099 2.529,38.363 4.364,37.554C11.025,33.662 17.729,30.975 24.404,29.512C29.587,-45.534 -30.63,-54.309 -30.63,-54.309C-0.305,-33.431 0,-14.535 0,-14.535" style="fill:white;fill-rule:nonzero;"/>
                </g>
                <g transform="matrix(1,0,0,1,433.506,430.01)">
                    <path d="M0,-91.739C0,-91.739 -11.886,-71.166 -1.981,-49.832C7.924,-28.497 37.336,-16.001 57.299,-32.002C67.204,-42.212 65.528,-53.794 62.48,-59.28C62.48,-59.28 74.976,-54.861 74.976,-34.593C74.976,-14.325 54.251,0 31.088,-5.486C7.924,-10.972 -12.496,-29.564 -15.087,-52.88C-17.677,-76.195 0,-91.739 0,-91.739" style="fill:white;fill-rule:nonzero;"/>
                </g>
                <g transform="matrix(1,0,0,1,437.011,386.835)">
                    <path d="M0,-8.638C0,-8.638 13.106,8.43 29.564,4.62C40.079,1.572 43.812,-7.038 42.593,-14.886C41.236,-23.62 58.573,-18.418 54.86,-1.933C51.051,14.982 31.088,14.373 20.573,10.411C10.058,6.449 2.438,-3.457 0,-8.638" style="fill:white;fill-rule:nonzero;"/>
                </g>
                <g transform="matrix(1,0,0,1,453.126,372.469)">
                    <path d="M0,14.3C0,14.3 8.877,10.173 12.686,-0.571C12.686,-0.571 11.163,8.725 3.543,14.871L0,14.3Z" style="fill:white;fill-rule:nonzero;"/>
                </g>
                <g transform="matrix(0.81128,0.584657,0.584657,-0.81128,451.106,378.585)">
                    <path d="M15.712,-0.47C15.712,-0.47 16.356,27.481 -9.422,40.836C-9.422,40.836 2.123,42.018 15.712,28.896C15.712,28.896 11.667,26.168 15.073,20.921C18.478,15.674 24.713,7.456 15.712,-0.47" style="fill:white;fill-rule:nonzero;"/>
                </g>
                <g transform="matrix(1,0,0,1,480.442,364.482)">
                    <path d="M0,-18.795C0,-18.795 7.924,-9.956 11.074,0L6.197,-1.423C6.197,-1.423 5.486,-11.988 0,-18.795" style="fill:white;fill-rule:nonzero;"/>
                </g>
                <g transform="matrix(-0.389062,-0.921211,-0.921211,0.389062,361.624,310.956)">
                    <path d="M-36.894,-53.184C-36.894,-53.184 -24.055,-33.187 -27.942,-12.797C-31.338,5.014 -36.909,14.15 -36.894,25.153C-36.894,25.153 -42.412,17.962 -43.207,13.336C-43.207,13.336 -26.064,-12.267 -36.894,-53.184" style="fill:white;fill-rule:nonzero;"/>
                </g>
                <g transform="matrix(-0.958355,-0.285579,-0.285579,0.958355,337.435,444.586)">
                    <path d="M-26.465,-117.39C-26.465,-117.39 5.947,-73.544 -37.16,-19.604C-37.16,-19.604 -35.526,-4.806 -26.465,1.074C-26.465,1.074 -26.592,-11.844 -16.027,-31.823C-4.543,-53.541 5.83,-89.162 -26.465,-117.39" style="fill:white;fill-rule:nonzero;"/>
                </g>
                <g transform="matrix(1,0,0,1,431.474,501.633)">
                    <path d="M0,-172.709C0,-172.709 -54.657,-140.876 -26.143,-81.41C4.618,-17.258 96.514,-32.002 122.725,-36.438C145.077,-40.222 184.9,-48.003 212.533,-34.542C212.533,-34.542 182.868,-43.482 123.944,-27.227C65.02,-10.972 27.633,0 -10.972,-26.415C-49.578,-52.829 -60.719,-82.291 -51.88,-120.829C-41.249,-167.183 0,-172.709 0,-172.709" style="fill:white;fill-rule:nonzero;"/>
                </g>
                <g transform="matrix(1,0,0,1,496.148,515.957)">
                    <path d="M0,-22.723C-4.958,-21.922 -9.781,-21.323 -14.497,-20.968C-11.308,-9.206 -2.905,0 -2.905,0C-4.446,-6.851 -2.234,-16.012 0,-22.723" style="fill:white;fill-rule:nonzero;"/>
                </g>
                <g transform="matrix(1,0,0,1,416.438,478.565)">
                    <path d="M0,0.514C-16.204,-10.573 -27.65,-22.372 -34.833,-35.354L-38.199,-30.574C-38.809,-21.43 -32.713,-16.147 -20.522,0.311C-8.331,16.769 -9.347,35.868 -9.347,35.868C0.776,26.342 2.449,12.075 2.104,1.892C1.4,1.438 0.696,0.99 0,0.514" style="fill:white;fill-rule:nonzero;"/>
                </g>
                <g transform="matrix(-0.211785,-0.977316,-0.977316,0.211785,436.258,501.873)">
                    <path d="M6.716,-12.717C10.308,-5.17 14.849,1.841 20.431,8.234C12.924,10.032 6.716,12.587 6.716,12.587C-18.877,-2.864 -23.065,-27.945 -23.065,-27.945C-12.069,-13.556 -0.57,-11.863 6.716,-12.717" style="fill:white;fill-rule:nonzero;"/>
                </g>
                <g transform="matrix(1,0,0,1,438.551,519.171)">
                    <path d="M0,-4.428C-4.775,-1.42 -8.906,-0.267 -8.906,-0.267C-3.565,0 1.425,-0.579 6.008,-1.694C4.053,-2.475 2.044,-3.376 0,-4.428" style="fill:white;fill-rule:nonzero;"/>
                </g>
                <g transform="matrix(1,0,0,1,476.196,508.562)">
                    <path d="M0,-13.265C-1.419,-13.216 -2.83,-13.187 -4.233,-13.187C-10.833,-13.187 -17.281,-13.729 -23.555,-14.84C-23.695,-13.684 -23.903,-12.58 -24.164,-11.52C-22.816,-7.333 -19.983,-2.676 -14.395,1.575C-4.992,-4.242 0.385,-10.79 0.385,-10.79L0,-13.265Z" style="fill:white;fill-rule:nonzero;"/>
                </g>
                <g transform="matrix(1,0,0,1,357.311,434.987)">
                    <path d="M0,-19.709L1.625,0C1.625,0 -18.49,-4.47 -29.056,-4.47C-29.056,-4.47 -16.865,-16.255 0,-19.709" style="fill:white;fill-rule:nonzero;"/>
                </g>
                <g transform="matrix(1,0,0,1,359.749,455.507)">
                    <path d="M0,-13.815C0,-13.815 0.406,-3.452 -3.251,4.065C-3.251,4.065 5.892,2.034 14.223,-5.688C14.223,-5.688 15.442,2.237 19.303,8.332C19.303,8.332 -62.378,-4.468 -77.617,-1.624C-77.617,-1.624 -49.06,-22.147 -24.179,-18.691C-2.235,-15.644 0,-13.815 0,-13.815" style="fill:white;fill-rule:nonzero;"/>
                </g>
                <g transform="matrix(1,0,0,1,253.533,474.05)">
                    <path d="M0,-5.791C0,-5.791 33.069,-17.068 85.186,-1.372C123.588,11.124 142.789,13.563 142.789,13.563C142.789,13.563 137.913,5.333 130.293,-3.81C130.293,-3.81 109.568,-5.486 89.453,-9.601C69.337,-13.715 28.345,-19.354 0,-5.791" style="fill:white;fill-rule:nonzero;"/>
                </g>
                <g transform="matrix(1,0,0,1,617.515,580.169)">
                    <path d="M0,-106.748C-38.177,-55.858 -99,-22.931 -167.515,-22.931C-235.919,-22.931 -296.653,-55.753 -334.841,-106.503C-343.668,-106.463 -352.916,-105.658 -360.728,-103.328C-319.078,-41.014 -248.093,0.029 -167.515,0.029C-86.858,0.029 -15.815,-41.095 25.819,-103.511C17.986,-105.306 8.843,-106.777 0,-106.748" style="fill:white;fill-rule:nonzero;"/>
                </g>
                <g transform="matrix(1,0,0,1,275.155,115.714)">
                    <path d="M0,117.213C37.429,60.436 101.755,22.96 174.845,22.96C247.768,22.96 311.969,60.265 349.434,116.824C356.583,116.389 365.694,115.149 373.541,111.945C332.825,44.837 259.072,0 174.845,0C90.686,0 16.982,44.765 -23.754,111.783C-18.637,113.933 -10.471,116.554 0,117.213" style="fill:white;fill-rule:nonzero;"/>
                </g>
                <g transform="matrix(1,0,0,1,108.895,691.613)">
                    <path d="M0,-51.459L0,-28.303L15.438,-28.303C18.268,-28.303 20.69,-29.416 22.707,-31.647C24.721,-33.877 25.73,-36.621 25.73,-39.881C25.73,-43.139 24.721,-45.883 22.707,-48.114C20.69,-50.343 18.268,-51.459 15.438,-51.459L0,-51.459ZM26.759,19.297L9.752,-10.292L0,-10.292L0,19.297L-20.584,19.297L-20.584,-70.756L15.438,-70.756C24.012,-70.756 31.304,-67.753 37.308,-61.751C43.31,-55.747 46.313,-48.456 46.313,-39.881C46.313,-34.391 44.79,-29.31 41.746,-24.636C38.701,-19.96 34.691,-16.338 29.718,-13.765L48.886,19.297L26.759,19.297Z" style="fill:white;fill-rule:nonzero;"/>
                </g>
                <g transform="matrix(1,0,0,1,188.012,640.669)">
                    <path d="M0,50.43L36.021,50.43L36.021,70.242L-20.584,70.242L-20.584,-19.812L35.378,-19.812L35.378,0L0,0L0,14.923L32.162,14.923L32.162,34.478L0,34.478L0,50.43Z" style="fill:white;fill-rule:nonzero;"/>
                </g>
                <g transform="matrix(1,0,0,1,255.638,620.857)">
                    <path d="M0,90.053L-27.745,0L-5.284,0L14.791,66.529L34.649,0L55.351,0L27.831,90.053L0,90.053Z" style="fill:white;fill-rule:nonzero;"/>
                </g>
                <g transform="matrix(1,0,0,1,341.101,640.669)">
                    <path d="M0,50.43L36.021,50.43L36.021,70.242L-20.584,70.242L-20.584,-19.812L35.378,-19.812L35.378,0L0,0L0,14.923L32.162,14.923L32.162,34.478L0,34.478L0,50.43Z" style="fill:white;fill-rule:nonzero;"/>
                </g>
                <g transform="matrix(1,0,0,1,409.284,640.669)">
                    <path d="M0,50.43L32.162,50.43L32.162,70.242L-20.584,70.242L-20.584,-19.812L0,-19.812L0,50.43Z" style="fill:white;fill-rule:nonzero;"/>
                </g>
                <g transform="matrix(1,0,0,1,478.493,654.305)">
                    <path d="M0,23.157L21.824,23.157L10.549,-9.905L0,23.157ZM33.227,56.605L28.403,42.454L-6.241,42.454L-10.744,56.605L-33.257,56.605L-2.639,-33.448L23.605,-33.448L54.289,56.605L33.227,56.605Z" style="fill:white;fill-rule:nonzero;"/>
                </g>
                <g transform="matrix(1,0,0,1,594.534,710.91)">
                    <path d="M0,-90.053L0,-70.241L-23.156,-70.241L-23.156,0L-43.74,0L-43.74,-70.241L-66.897,-70.241L-66.897,-90.053L0,-90.053Z" style="fill:white;fill-rule:nonzero;"/>
                </g>
                <g transform="matrix(1,0,0,1,0,431.767)">
                    <rect x="603.539" y="189.09" width="20.584" height="90.053" style="fill:white;"/>
                </g>
                <g transform="matrix(1,0,0,1,663.81,646.587)">
                    <path d="M0,38.594C5.018,43.569 11.257,46.056 18.719,46.056C26.18,46.056 32.42,43.569 37.436,38.594C42.454,33.621 44.962,27.189 44.962,19.297C44.962,11.407 42.454,4.975 37.436,-0C32.42,-4.974 26.18,-7.462 18.719,-7.462C11.257,-7.462 5.018,-4.974 0,-0C-5.017,4.975 -7.526,11.407 -7.526,19.297C-7.526,27.189 -5.017,33.621 0,38.594M51.91,52.616C42.818,61.622 31.754,66.125 18.719,66.125C5.68,66.125 -5.383,61.622 -14.473,52.616C-23.565,43.611 -28.109,32.505 -28.109,19.297C-28.109,6.09 -23.565,-5.018 -14.473,-14.023C-5.383,-23.028 5.68,-27.531 18.719,-27.531C31.754,-27.531 42.818,-23.028 51.91,-14.023C60.999,-5.018 65.545,6.09 65.545,19.297C65.545,32.505 60.999,43.611 51.91,52.616" style="fill:white;fill-rule:nonzero;"/>
                </g>
                <g transform="matrix(1,0,0,1,791.105,710.91)">
                    <path d="M0,-90.053L20.584,-90.053L20.584,0L5.146,0L-29.589,-48.886L-29.589,0L-50.173,0L-50.173,-90.053L-34.735,-90.053L0,-41.167L0,-90.053Z" style="fill:white;fill-rule:nonzero;"/>
                </g>
                <g transform="matrix(1,0,0,1,93.2437,743.287)">
                    <path d="M0,35.491L27.482,35.491L27.482,40.167L-4.932,40.167L-4.932,-4.676L26.906,-4.676L26.906,-0.063L0,-0.063L0,15.184L25.689,15.184L25.689,19.796L0,19.796L0,35.491Z" style="fill:white;fill-rule:nonzero;"/>
                </g>
                <g transform="matrix(1,0,0,1,130.399,738.611)">
                    <path d="M0,44.843L0,0L4.932,0L4.932,40.167L29.724,40.167L29.724,44.843L0,44.843Z" style="fill:white;fill-rule:nonzero;"/>
                </g>
                <g transform="matrix(1,0,0,1,172.23,743.287)">
                    <path d="M0,35.491L27.482,35.491L27.482,40.167L-4.932,40.167L-4.932,-4.676L26.906,-4.676L26.906,-0.063L0,-0.063L0,15.184L25.689,15.184L25.689,19.796L0,19.796L0,35.491Z" style="fill:white;fill-rule:nonzero;"/>
                </g>
                <g transform="matrix(1,0,0,1,229.502,737.779)">
                    <path d="M0,46.508C-6.833,46.508 -12.407,44.341 -16.72,40.006C-21.034,35.672 -23.191,30.087 -23.191,23.254C-23.191,16.421 -21.034,10.837 -16.72,6.502C-12.407,2.167 -6.833,0 0,0C6.448,0 11.873,2.264 16.271,6.79L12.876,9.929C9.459,6.385 5.21,4.612 0.128,4.612C-5.296,4.612 -9.705,6.342 -13.101,9.801C-16.496,13.261 -18.194,17.745 -18.194,23.254C-18.194,28.763 -16.496,33.247 -13.101,36.707C-9.705,40.166 -5.296,41.896 0.128,41.896C5.253,41.896 9.63,40.124 13.261,36.579L16.528,39.846C12.172,44.288 6.662,46.508 0,46.508" style="fill:white;fill-rule:nonzero;"/>
                </g>
                <g transform="matrix(1,0,0,1,285.684,783.454)">
                    <path d="M0,-44.843L0,-40.167L-15.631,-40.167L-15.631,0L-20.5,0L-20.5,-40.167L-36.13,-40.167L-36.13,-44.843L0,-44.843Z" style="fill:white;fill-rule:nonzero;"/>
                </g>
                <g transform="matrix(1,0,0,1,312.973,778.778)">
                    <path d="M0,-35.491L-15.311,-35.491L-15.311,-16.337L0,-16.337C3.16,-16.337 5.658,-17.191 7.495,-18.899C9.331,-20.607 10.249,-22.935 10.249,-25.882C10.249,-28.828 9.331,-31.167 7.495,-32.897C5.658,-34.626 3.16,-35.491 0,-35.491M10.506,4.676L-3.973,-11.596L-15.311,-11.596L-15.311,4.676L-20.244,4.676L-20.244,-40.167L-0.064,-40.167C4.505,-40.167 8.177,-38.864 10.954,-36.26C13.73,-33.654 15.118,-30.194 15.118,-25.882C15.118,-21.952 13.943,-18.717 11.594,-16.176C9.245,-13.635 6.085,-12.151 2.114,-11.724L16.848,4.676L10.506,4.676Z" style="fill:white;fill-rule:nonzero;"/>
                </g>
                <g transform="matrix(1,0,0,1,0,622.065)">
                    <rect x="338.149" y="116.546" width="4.932" height="44.843" style="fill:white;"/>
                </g>
                <g transform="matrix(1,0,0,1,375.56,737.779)">
                    <path d="M0,46.508C-6.833,46.508 -12.407,44.341 -16.72,40.006C-21.034,35.672 -23.191,30.087 -23.191,23.254C-23.191,16.421 -21.034,10.837 -16.72,6.502C-12.407,2.167 -6.833,0 0,0C6.448,0 11.873,2.264 16.271,6.79L12.876,9.929C9.459,6.385 5.21,4.612 0.128,4.612C-5.296,4.612 -9.705,6.342 -13.101,9.801C-16.496,13.261 -18.194,17.745 -18.194,23.254C-18.194,28.763 -16.496,33.247 -13.101,36.707C-9.705,40.166 -5.296,41.896 0.128,41.896C5.253,41.896 9.63,40.124 13.261,36.579L16.528,39.846C12.172,44.288 6.662,46.508 0,46.508" style="fill:white;fill-rule:nonzero;"/>
                </g>
                <g transform="matrix(1,0,0,1,418.354,778.329)">
                    <path d="M0,-34.593L-10.891,-9.865L10.89,-9.865L0,-34.593ZM17.553,5.125L12.941,-5.253L-12.941,-5.253L-17.553,5.125L-22.934,5.125L-2.818,-39.718L2.818,-39.718L22.934,5.125L17.553,5.125Z" style="fill:white;fill-rule:nonzero;"/>
                </g>
                <g transform="matrix(1,0,0,1,448.526,738.611)">
                    <path d="M0,44.843L0,0L4.932,0L4.932,40.167L29.724,40.167L29.724,44.843L0,44.843Z" style="fill:white;fill-rule:nonzero;"/>
                </g>
                <g transform="matrix(1,0,0,1,515.79,737.779)">
                    <path d="M0,46.444C-3.546,46.444 -6.961,45.804 -10.25,44.522C-13.539,43.241 -16.293,41.469 -18.514,39.205L-15.694,35.553C-14.029,37.433 -11.755,38.949 -8.872,40.102C-5.989,41.255 -3.032,41.832 0,41.832C3.929,41.832 7.047,41.095 9.354,39.622C11.66,38.148 12.813,36.173 12.813,33.696C12.813,31.389 11.819,29.607 9.834,28.347C7.848,27.088 4.398,26.031 -0.512,25.176C-6.577,24.193 -10.923,22.699 -13.549,20.692C-16.175,18.685 -17.489,15.844 -17.489,12.171C-17.489,8.584 -15.919,5.659 -12.78,3.395C-9.641,1.132 -5.553,0 -0.512,0C5.936,0 11.361,2.007 15.759,6.021L13.068,9.544C9.439,6.172 4.933,4.484 -0.448,4.484C-4.078,4.484 -7.005,5.2 -9.225,6.63C-11.446,8.061 -12.556,9.929 -12.556,12.235C-12.556,14.457 -11.606,16.197 -9.705,17.456C-7.805,18.716 -4.548,19.773 0.064,20.627C6.599,21.738 11.189,23.265 13.837,25.208C16.485,27.152 17.81,29.938 17.81,33.568C17.81,37.497 16.197,40.626 12.972,42.952C9.748,45.281 5.424,46.444 0,46.444" style="fill:white;fill-rule:nonzero;"/>
                </g>
                <g transform="matrix(1,0,0,1,547.244,743.287)">
                    <path d="M0,35.491L27.482,35.491L27.482,40.167L-4.932,40.167L-4.932,-4.676L26.906,-4.676L26.906,-0.063L0,-0.063L0,15.184L25.689,15.184L25.689,19.796L0,19.796L0,35.491Z" style="fill:white;fill-rule:nonzero;"/>
                </g>
                <g transform="matrix(1,0,0,1,604.643,778.778)">
                    <path d="M0,-35.491L-15.311,-35.491L-15.311,-16.337L0,-16.337C3.16,-16.337 5.658,-17.191 7.495,-18.899C9.331,-20.607 10.249,-22.935 10.249,-25.882C10.249,-28.828 9.331,-31.167 7.495,-32.897C5.658,-34.626 3.16,-35.491 0,-35.491M10.506,4.676L-3.973,-11.596L-15.311,-11.596L-15.311,4.676L-20.244,4.676L-20.244,-40.167L-0.064,-40.167C4.505,-40.167 8.177,-38.864 10.954,-36.26C13.73,-33.654 15.118,-30.194 15.118,-25.882C15.118,-21.952 13.943,-18.717 11.594,-16.176C9.245,-13.635 6.085,-12.151 2.114,-11.724L16.848,4.676L10.506,4.676Z" style="fill:white;fill-rule:nonzero;"/>
                </g>
                <g transform="matrix(1,0,0,1,661.467,783.454)">
                    <path d="M0,-44.843L5.317,-44.843L-13.197,0L-18.643,0L-37.22,-44.843L-31.903,-44.843L-22.934,-22.998L-15.951,-5.766L0,-44.843Z" style="fill:white;fill-rule:nonzero;"/>
                </g>
                <g transform="matrix(1,0,0,1,0,622.065)">
                    <rect x="674.213" y="116.546" width="4.932" height="44.843" style="fill:white;"/>
                </g>
                <g transform="matrix(1,0,0,1,711.624,737.779)">
                    <path d="M0,46.508C-6.833,46.508 -12.407,44.341 -16.72,40.006C-21.034,35.672 -23.191,30.087 -23.191,23.254C-23.191,16.421 -21.034,10.837 -16.72,6.502C-12.407,2.167 -6.833,0 0,0C6.448,0 11.873,2.264 16.271,6.79L12.876,9.929C9.46,6.385 5.21,4.612 0.128,4.612C-5.296,4.612 -9.705,6.342 -13.101,9.801C-16.496,13.261 -18.194,17.745 -18.194,23.254C-18.194,28.763 -16.496,33.247 -13.101,36.707C-9.705,40.166 -5.296,41.896 0.128,41.896C5.253,41.896 9.63,40.124 13.261,36.579L16.528,39.846C12.172,44.288 6.662,46.508 0,46.508" style="fill:white;fill-rule:nonzero;"/>
                </g>
                <g transform="matrix(1,0,0,1,741.605,743.287)">
                    <path d="M0,35.491L27.482,35.491L27.482,40.167L-4.932,40.167L-4.932,-4.676L26.906,-4.676L26.906,-0.063L0,-0.063L0,15.184L25.689,15.184L25.689,19.796L0,19.796L0,35.491Z" style="fill:white;fill-rule:nonzero;"/>
                </g>
                <g transform="matrix(1,0,0,1,793.879,737.779)">
                    <path d="M0,46.444C-3.546,46.444 -6.961,45.804 -10.25,44.522C-13.539,43.241 -16.293,41.469 -18.514,39.205L-15.694,35.553C-14.029,37.433 -11.755,38.949 -8.872,40.102C-5.989,41.255 -3.032,41.832 0,41.832C3.929,41.832 7.047,41.095 9.354,39.622C11.66,38.148 12.813,36.173 12.813,33.696C12.813,31.389 11.819,29.607 9.834,28.347C7.848,27.088 4.398,26.031 -0.512,25.176C-6.577,24.193 -10.923,22.699 -13.549,20.692C-16.175,18.685 -17.489,15.844 -17.489,12.171C-17.489,8.584 -15.919,5.659 -12.78,3.395C-9.641,1.132 -5.553,0 -0.512,0C5.936,0 11.361,2.007 15.759,6.021L13.068,9.544C9.439,6.172 4.933,4.484 -0.448,4.484C-4.078,4.484 -7.005,5.2 -9.225,6.63C-11.446,8.061 -12.556,9.929 -12.556,12.235C-12.556,14.457 -11.606,16.197 -9.705,17.456C-7.805,18.716 -4.548,19.773 0.064,20.627C6.599,21.738 11.189,23.265 13.837,25.208C16.485,27.152 17.81,29.938 17.81,33.568C17.81,37.497 16.197,40.626 12.972,42.952C9.748,45.281 5.424,46.444 0,46.444" style="fill:white;fill-rule:nonzero;"/>
                </g>
            </g>
        </g>
    </g>
</svg>
